<mxfile host="app.diagrams.net" modified="2024-07-22T20:20:20.460Z" agent="Mozilla/5.0 (Windows NT 10.0; Win64; x64) AppleWebKit/537.36 (KHTML, like Gecko) Chrome/126.0.0.0 Safari/537.36" version="24.7.3" etag="VAJKvaNcmkE6Z7O6Ahh_" type="github">
  <diagram name="PÃ¡gina-1" id="yED4k3YbAAe-HGSZt13f">
    <mxGraphModel>
      <root>
        <mxCell id="0" />
        <mxCell id="1" parent="0" />
      </root>
    </mxGraphModel>
  </diagram>
</mxfile>
